<?xml version="1.0" encoding="iso-8859-1"?>
<!-- Generator: Adobe Illustrator 19.0.0, SVG Export Plug-In . SVG Version: 6.00 Build 0)  -->
<svg version="1.1" id="Capa_1" xmlns="http://www.w3.org/2000/svg" xmlns:xlink="http://www.w3.org/1999/xlink" x="0px" y="0px"
	 viewBox="0 0 512 512" style="enable-background:new 0 0 512 512;" xml:space="preserve">
<circle style="fill:#73D4FF;" cx="256" cy="256" r="256"/>
<path style="fill:#C2EEFF;" d="M86.851,131.118c-1.218,0-2.415,0.098-3.582,0.282c-4.733-12.874-17.104-22.058-31.62-22.058
	c-14.512,0-26.879,9.178-31.615,22.047C9.119,133.083,0.765,142.521,0.765,153.91h108.879
	C109.643,141.322,99.439,131.118,86.851,131.118z"/>
<path style="fill:#079ACC;" d="M511.979,258.759c-0.251,24.409-3.929,47.992-10.553,70.301C469.974,434.845,372.005,512,256,512
	S42.015,434.855,10.574,329.059c-6.625-22.309-10.303-45.892-10.553-70.29c7.628,3.082,16.52,5.59,31.054,5.59
	c37.491,0,37.491-16.718,74.971-16.718c37.491,0,37.491,16.718,74.971,16.718s37.48-16.718,74.971-16.718
	c37.48,0,37.48,16.718,74.971,16.718c37.48,0,37.48-16.718,74.971-16.718c37.48,0,37.48,16.718,74.971,16.718
	C495.438,264.359,504.341,261.841,511.979,258.759z"/>
<g>
	<polyline style="fill:#EDEDED;" points="253.549,148.309 253.549,110.517 338.06,110.517 352.814,138.799 	"/>
	<rect x="177.768" y="83.52" style="fill:#EDEDED;" width="45.472" height="75.285"/>
</g>
<rect x="177.768" y="98.889" style="fill:#E8509A;" width="45.472" height="13.584"/>
<rect x="104.939" y="83.52" style="fill:#EDEDED;" width="45.472" height="75.285"/>
<rect x="104.939" y="98.889" style="fill:#E8509A;" width="45.472" height="13.584"/>
<rect x="104.939" y="83.52" style="fill:#D1D1D1;" width="14.536" height="75.285"/>
<rect x="104.939" y="98.889" style="fill:#DC2D8D;" width="14.536" height="13.584"/>
<rect x="177.768" y="83.52" style="fill:#D1D1D1;" width="14.536" height="75.285"/>
<rect x="177.768" y="98.889" style="fill:#DC2D8D;" width="14.536" height="13.584"/>
<polyline style="fill:#D1D1D1;" points="64.415,179.656 64.415,138.799 372.895,138.799 387.649,167.081 "/>
<polyline style="fill:#EDEDED;" points="52.739,207.519 52.739,167.081 403.549,167.081 418.303,195.364 "/>
<polyline style="fill:#D1D1D1;" points="476.773,263.342 424.522,195.364 40.257,195.364 40.257,226.228 "/>
<polygon style="fill:#EDEDED;" points="508.452,244.223 464.137,340.26 236.997,346.916 37.297,352.777 19.701,263.951 
	28.237,226.219 384.046,226.219 413.303,244.223 "/>
<g>
	<path style="fill:#36539C;" d="M384.703,183.138c0-3.176,2.57-5.747,5.747-5.747l0,0c3.166,0,5.747,2.57,5.747,5.747l0,0
		c0,3.176-2.581,5.747-5.747,5.747l0,0C387.274,188.885,384.703,186.315,384.703,183.138z M363.805,183.138
		c0-3.176,2.57-5.747,5.747-5.747l0,0c3.176,0,5.747,2.57,5.747,5.747l0,0c0,3.176-2.57,5.747-5.747,5.747l0,0
		C366.376,188.885,363.805,186.315,363.805,183.138z M342.907,183.138c0-3.176,2.57-5.747,5.747-5.747l0,0
		c3.166,0,5.747,2.57,5.747,5.747l0,0c0,3.176-2.581,5.747-5.747,5.747l0,0C345.478,188.885,342.907,186.315,342.907,183.138z
		 M322.009,183.138c0-3.176,2.57-5.747,5.747-5.747l0,0c3.177,0,5.747,2.57,5.747,5.747l0,0c0,3.176-2.57,5.747-5.747,5.747l0,0
		C324.58,188.885,322.009,186.315,322.009,183.138z M301.111,183.138c0-3.176,2.57-5.747,5.747-5.747l0,0
		c3.166,0,5.747,2.57,5.747,5.747l0,0c0,3.176-2.581,5.747-5.747,5.747l0,0C303.682,188.885,301.111,186.315,301.111,183.138z
		 M280.213,183.138c0-3.176,2.57-5.747,5.747-5.747l0,0c3.176,0,5.747,2.57,5.747,5.747l0,0c0,3.176-2.57,5.747-5.747,5.747l0,0
		C282.784,188.885,280.213,186.315,280.213,183.138z M259.315,183.138c0-3.176,2.57-5.747,5.747-5.747l0,0
		c3.166,0,5.747,2.57,5.747,5.747l0,0c0,3.176-2.581,5.747-5.747,5.747l0,0C261.886,188.885,259.315,186.315,259.315,183.138z
		 M238.417,183.138c0-3.176,2.57-5.747,5.747-5.747l0,0c3.166,0,5.747,2.57,5.747,5.747l0,0c0,3.176-2.581,5.747-5.747,5.747l0,0
		C240.988,188.885,238.417,186.315,238.417,183.138z M217.52,183.138c0-3.176,2.57-5.747,5.747-5.747l0,0
		c3.166,0,5.747,2.57,5.747,5.747l0,0c0,3.176-2.581,5.747-5.747,5.747l0,0C220.09,188.885,217.52,186.315,217.52,183.138z
		 M196.622,183.138c0-3.176,2.57-5.747,5.747-5.747l0,0c3.166,0,5.747,2.57,5.747,5.747l0,0c0,3.176-2.581,5.747-5.747,5.747l0,0
		C199.192,188.885,196.622,186.315,196.622,183.138z M175.724,183.138c0-3.176,2.57-5.747,5.747-5.747l0,0
		c3.166,0,5.747,2.57,5.747,5.747l0,0c0,3.176-2.581,5.747-5.747,5.747l0,0C178.294,188.885,175.724,186.315,175.724,183.138z
		 M154.826,183.138c0-3.176,2.57-5.747,5.747-5.747l0,0c3.166,0,5.747,2.57,5.747,5.747l0,0c0,3.176-2.581,5.747-5.747,5.747l0,0
		C157.396,188.885,154.826,186.315,154.826,183.138z M133.928,183.138c0-3.176,2.57-5.747,5.747-5.747l0,0
		c3.166,0,5.747,2.57,5.747,5.747l0,0c0,3.176-2.581,5.747-5.747,5.747l0,0C136.498,188.885,133.928,186.315,133.928,183.138z
		 M113.03,183.138c0-3.176,2.57-5.747,5.747-5.747l0,0c3.166,0,5.747,2.57,5.747,5.747l0,0c0,3.176-2.581,5.747-5.747,5.747l0,0
		C115.6,188.885,113.03,186.315,113.03,183.138z M92.132,183.138c0-3.176,2.57-5.747,5.747-5.747l0,0
		c3.176,0,5.747,2.57,5.747,5.747l0,0c0,3.176-2.57,5.747-5.747,5.747l0,0C94.702,188.885,92.132,186.315,92.132,183.138z
		 M71.234,183.138c0-3.176,2.57-5.747,5.747-5.747l0,0c3.166,0,5.747,2.57,5.747,5.747l0,0c0,3.176-2.581,5.747-5.747,5.747l0,0
		C73.804,188.885,71.234,186.315,71.234,183.138z"/>
	<path style="fill:#36539C;" d="M402.257,210.306c0-3.176,2.57-5.747,5.747-5.747l0,0c3.176,0,5.747,2.57,5.747,5.747l0,0
		c0,3.176-2.57,5.747-5.747,5.747l0,0C404.828,216.052,402.257,213.482,402.257,210.306z M381.36,210.306
		c0-3.176,2.57-5.747,5.747-5.747l0,0c3.177,0,5.747,2.57,5.747,5.747l0,0c0,3.176-2.57,5.747-5.747,5.747l0,0
		C383.93,216.052,381.36,213.482,381.36,210.306z M360.462,210.306c0-3.176,2.57-5.747,5.747-5.747l0,0
		c3.177,0,5.747,2.57,5.747,5.747l0,0c0,3.176-2.57,5.747-5.747,5.747l0,0C363.032,216.052,360.462,213.482,360.462,210.306z
		 M339.564,210.306c0-3.176,2.57-5.747,5.747-5.747l0,0c3.176,0,5.747,2.57,5.747,5.747l0,0c0,3.176-2.57,5.747-5.747,5.747l0,0
		C342.134,216.052,339.564,213.482,339.564,210.306z M318.666,210.306c0-3.176,2.57-5.747,5.747-5.747l0,0
		c3.177,0,5.747,2.57,5.747,5.747l0,0c0,3.176-2.57,5.747-5.747,5.747l0,0C321.236,216.052,318.666,213.482,318.666,210.306z
		 M297.768,210.306c0-3.176,2.57-5.747,5.747-5.747l0,0c3.177,0,5.747,2.57,5.747,5.747l0,0c0,3.176-2.57,5.747-5.747,5.747l0,0
		C300.338,216.052,297.768,213.482,297.768,210.306z M276.87,210.306c0-3.176,2.57-5.747,5.747-5.747l0,0
		c3.176,0,5.747,2.57,5.747,5.747l0,0c0,3.176-2.57,5.747-5.747,5.747l0,0C279.44,216.052,276.87,213.482,276.87,210.306z
		 M255.972,210.306c0-3.176,2.57-5.747,5.747-5.747l0,0c3.176,0,5.747,2.57,5.747,5.747l0,0c0,3.176-2.57,5.747-5.747,5.747l0,0
		C258.542,216.052,255.972,213.482,255.972,210.306z M235.074,210.306c0-3.176,2.57-5.747,5.747-5.747l0,0
		c3.176,0,5.747,2.57,5.747,5.747l0,0c0,3.176-2.57,5.747-5.747,5.747l0,0C237.644,216.052,235.074,213.482,235.074,210.306z
		 M214.176,210.306c0-3.176,2.57-5.747,5.747-5.747l0,0c3.176,0,5.747,2.57,5.747,5.747l0,0c0,3.176-2.57,5.747-5.747,5.747l0,0
		C216.746,216.052,214.176,213.482,214.176,210.306z M193.278,210.306c0-3.176,2.57-5.747,5.747-5.747l0,0
		c3.176,0,5.747,2.57,5.747,5.747l0,0c0,3.176-2.57,5.747-5.747,5.747l0,0C195.848,216.052,193.278,213.482,193.278,210.306z
		 M172.38,210.306c0-3.176,2.57-5.747,5.747-5.747l0,0c3.176,0,5.747,2.57,5.747,5.747l0,0c0,3.176-2.57,5.747-5.747,5.747l0,0
		C174.95,216.052,172.38,213.482,172.38,210.306z M151.482,210.306c0-3.176,2.57-5.747,5.747-5.747l0,0
		c3.176,0,5.747,2.57,5.747,5.747l0,0c0,3.176-2.57,5.747-5.747,5.747l0,0C154.052,216.052,151.482,213.482,151.482,210.306z
		 M130.584,210.306c0-3.176,2.57-5.747,5.747-5.747l0,0c3.176,0,5.747,2.57,5.747,5.747l0,0c0,3.176-2.57,5.747-5.747,5.747l0,0
		C133.154,216.052,130.584,213.482,130.584,210.306z M109.686,210.306c0-3.176,2.57-5.747,5.747-5.747l0,0
		c3.176,0,5.747,2.57,5.747,5.747l0,0c0,3.176-2.57,5.747-5.747,5.747l0,0C112.257,216.052,109.686,213.482,109.686,210.306z
		 M88.788,210.306c0-3.176,2.57-5.747,5.747-5.747l0,0c3.176,0,5.747,2.57,5.747,5.747l0,0c0,3.176-2.57,5.747-5.747,5.747l0,0
		C91.359,216.052,88.788,213.482,88.788,210.306z M67.89,210.306c0-3.176,2.57-5.747,5.747-5.747l0,0
		c3.176,0,5.747,2.57,5.747,5.747l0,0c0,3.176-2.57,5.747-5.747,5.747l0,0C70.461,216.052,67.89,213.482,67.89,210.306z
		 M46.992,210.306c0-3.176,2.57-5.747,5.747-5.747l0,0c3.176,0,5.747,2.57,5.747,5.747l0,0c0,3.176-2.57,5.747-5.747,5.747l0,0
		C49.563,216.052,46.992,213.482,46.992,210.306z"/>
	<path style="fill:#36539C;" d="M363.805,153.066c0-3.176,2.57-5.747,5.747-5.747l0,0c3.176,0,5.747,2.57,5.747,5.747l0,0
		c0,3.166-2.57,5.747-5.747,5.747l0,0C366.376,158.813,363.805,156.232,363.805,153.066z M342.907,153.066
		c0-3.176,2.57-5.747,5.747-5.747l0,0c3.166,0,5.747,2.57,5.747,5.747l0,0c0,3.166-2.581,5.747-5.747,5.747l0,0
		C345.478,158.813,342.907,156.232,342.907,153.066z M322.009,153.066c0-3.176,2.57-5.747,5.747-5.747l0,0
		c3.166,0,5.747,2.57,5.747,5.747l0,0c0,3.166-2.581,5.747-5.747,5.747l0,0C324.58,158.813,322.009,156.232,322.009,153.066z
		 M301.111,153.066c0-3.176,2.57-5.747,5.747-5.747l0,0c3.166,0,5.747,2.57,5.747,5.747l0,0c0,3.166-2.581,5.747-5.747,5.747l0,0
		C303.682,158.813,301.111,156.232,301.111,153.066z M280.213,153.066c0-3.176,2.57-5.747,5.747-5.747l0,0
		c3.166,0,5.747,2.57,5.747,5.747l0,0c0,3.166-2.581,5.747-5.747,5.747l0,0C282.784,158.813,280.213,156.232,280.213,153.066z
		 M259.315,153.066c0-3.176,2.57-5.747,5.747-5.747l0,0c3.177,0,5.747,2.57,5.747,5.747l0,0c0,3.166-2.57,5.747-5.747,5.747l0,0
		C261.886,158.813,259.315,156.232,259.315,153.066z M238.417,153.066c0-3.176,2.57-5.747,5.747-5.747l0,0
		c3.176,0,5.747,2.57,5.747,5.747l0,0c0,3.166-2.57,5.747-5.747,5.747l0,0C240.988,158.813,238.417,156.232,238.417,153.066z
		 M217.52,153.066c0-3.176,2.57-5.747,5.747-5.747l0,0c3.166,0,5.747,2.57,5.747,5.747l0,0c0,3.166-2.581,5.747-5.747,5.747l0,0
		C220.09,158.813,217.52,156.232,217.52,153.066z M196.622,153.066c0-3.176,2.57-5.747,5.747-5.747l0,0
		c3.166,0,5.747,2.57,5.747,5.747l0,0c0,3.166-2.581,5.747-5.747,5.747l0,0C199.192,158.813,196.622,156.232,196.622,153.066z
		 M175.724,153.066c0-3.176,2.57-5.747,5.747-5.747l0,0c3.166,0,5.747,2.57,5.747,5.747l0,0c0,3.166-2.581,5.747-5.747,5.747l0,0
		C178.294,158.813,175.724,156.232,175.724,153.066z M154.826,153.066c0-3.176,2.57-5.747,5.747-5.747l0,0
		c3.166,0,5.747,2.57,5.747,5.747l0,0c0,3.166-2.581,5.747-5.747,5.747l0,0C157.396,158.813,154.826,156.232,154.826,153.066z
		 M133.928,153.066c0-3.176,2.57-5.747,5.747-5.747l0,0c3.166,0,5.747,2.57,5.747,5.747l0,0c0,3.166-2.581,5.747-5.747,5.747l0,0
		C136.498,158.813,133.928,156.232,133.928,153.066z M113.03,153.066c0-3.176,2.57-5.747,5.747-5.747l0,0
		c3.176,0,5.747,2.57,5.747,5.747l0,0c0,3.166-2.57,5.747-5.747,5.747l0,0C115.6,158.813,113.03,156.232,113.03,153.066z
		 M92.132,153.066c0-3.176,2.57-5.747,5.747-5.747l0,0c3.166,0,5.747,2.57,5.747,5.747l0,0c0,3.166-2.581,5.747-5.747,5.747l0,0
		C94.702,158.813,92.132,156.232,92.132,153.066z M71.234,153.066c0-3.176,2.57-5.747,5.747-5.747l0,0
		c3.166,0,5.747,2.57,5.747,5.747l0,0c0,3.166-2.581,5.747-5.747,5.747l0,0C73.804,158.813,71.234,156.232,71.234,153.066z"/>
	<path style="fill:#36539C;" d="M323.399,125.324c0-3.176,2.57-5.747,5.747-5.747l0,0c3.177,0,5.747,2.57,5.747,5.747l0,0
		c0,3.166-2.57,5.747-5.747,5.747l0,0C325.97,131.071,323.399,128.49,323.399,125.324z M302.501,125.324
		c0-3.176,2.57-5.747,5.747-5.747l0,0c3.176,0,5.747,2.57,5.747,5.747l0,0c0,3.166-2.57,5.747-5.747,5.747l0,0
		C305.072,131.071,302.501,128.49,302.501,125.324z M281.603,125.324c0-3.176,2.57-5.747,5.747-5.747l0,0
		c3.177,0,5.747,2.57,5.747,5.747l0,0c0,3.166-2.57,5.747-5.747,5.747l0,0C284.174,131.071,281.603,128.49,281.603,125.324z
		 M260.705,125.324c0-3.176,2.57-5.747,5.747-5.747l0,0c3.176,0,5.747,2.57,5.747,5.747l0,0c0,3.166-2.57,5.747-5.747,5.747l0,0
		C263.276,131.071,260.705,128.49,260.705,125.324z"/>
</g>
<path style="fill:#D1D1D1;" d="M236.997,346.916l-199.701,5.862l-17.596-88.827l8.537-37.731h27.146
	C55.384,226.219,73.45,316.917,236.997,346.916z"/>
<circle style="fill:#36539C;" cx="464.29" cy="270.211" r="8.359"/>
<path style="fill:#D1D1D1;" d="M301.631,251.405h64.784c3.271,0,5.921-2.651,5.921-5.921l0,0c0-3.271-2.651-5.921-5.921-5.921
	h-64.784c-3.271,0-5.921,2.651-5.921,5.921l0,0C295.71,248.754,298.361,251.405,301.631,251.405z"/>
<path style="fill:#73D4FF;" d="M501.426,329.059c-7.753,26.07-19.55,50.406-34.659,72.276C420.582,468.187,343.416,512,256,512
	S91.408,468.198,45.223,401.335c-15.109-21.859-26.906-46.195-34.649-72.276c5.496,1.327,12.048,2.173,20.501,2.173
	c37.491,0,37.491-16.718,74.971-16.718c37.491,0,37.491,16.718,74.971,16.718s37.48-16.718,74.971-16.718
	c37.48,0,37.48,16.718,74.971,16.718c37.48,0,37.48-16.718,74.971-16.718c37.48,0,37.48,16.718,74.971,16.718
	C489.367,331.233,495.919,330.376,501.426,329.059z"/>
<path style="fill:#079ACC;" d="M466.766,401.335c-14.827,21.473-32.852,40.563-53.394,56.592C369.967,491.813,315.34,512,256,512
	c-59.35,0-113.977-20.187-157.393-54.084c-20.532-16.029-38.557-35.109-53.384-56.581c24.127-3.542,28.766-15.768,60.824-15.768
	c37.491,0,37.491,16.718,74.971,16.718s37.48-16.718,74.971-16.718c37.48,0,37.48,16.718,74.971,16.718
	c37.48,0,37.48-16.718,74.971-16.718C437.99,385.567,442.629,397.803,466.766,401.335z"/>
<path style="fill:#73D4FF;" d="M413.372,457.927C369.967,491.813,315.34,512,256,512c-59.35,0-113.977-20.187-157.393-54.084
	c2.309-0.157,4.775-0.24,7.44-0.24c37.491,0,37.491,16.718,74.971,16.718s37.48-16.718,74.971-16.718
	c37.48,0,37.48,16.718,74.971,16.718c37.48,0,37.48-16.718,74.971-16.718C408.597,457.676,411.063,457.759,413.372,457.927z"/>
<g>
	<path style="fill:#36539C;" d="M124.346,74.469c-4.616,0-8.359-3.743-8.359-8.359c0-5.185-4.219-9.404-9.404-9.404H0.021v-8.359
		v-8.359h106.562c14.404,0,26.122,11.719,26.122,26.122C132.705,70.727,128.963,74.469,124.346,74.469z"/>
	<path style="fill:#36539C;" d="M199.579,74.469c-4.616,0-8.359-3.743-8.359-8.359c0-5.185-4.219-9.404-9.404-9.404h-102.4
		c-4.616,0-8.359-3.743-8.359-8.359s3.743-8.359,8.359-8.359h102.4c14.404,0,26.122,11.719,26.122,26.122
		C207.938,70.727,204.196,74.469,199.579,74.469z"/>
</g>
<g>
	<path style="fill:#C2EEFF;" d="M450.655,170.619c0.53,0,1.049,0.043,1.557,0.122c2.057-5.595,7.433-9.586,13.742-9.586
		c6.307,0,11.682,3.989,13.74,9.582c4.744,0.737,8.375,4.838,8.375,9.788h-47.321C440.748,175.055,445.184,170.619,450.655,170.619z
		"/>
	<path style="fill:#C2EEFF;" d="M359.981,48.959c1.496,0,2.964,0.12,4.397,0.347c5.812-15.806,20.999-27.081,38.821-27.081
		c17.818,0,33.001,11.269,38.816,27.068c13.401,2.079,23.658,13.666,23.658,27.65H331.996
		C331.996,61.487,344.526,48.959,359.981,48.959z"/>
</g>
<g>
</g>
<g>
</g>
<g>
</g>
<g>
</g>
<g>
</g>
<g>
</g>
<g>
</g>
<g>
</g>
<g>
</g>
<g>
</g>
<g>
</g>
<g>
</g>
<g>
</g>
<g>
</g>
<g>
</g>
</svg>
